# xmcd
#
# Track frame offsets: 
#        150
#        14338
#        30807
#        48615
#        61816
#        76942
#        97185
#        112152
#
# Disc length: 1745 seconds
#
# Revision: 0
# Processed by: cddbd v1.5.2PL0 Copyright (c) Steve Scherf et al.
# Submitted via: ExactAudioCopy v1.0b1
#
DISCID=5e06cf08
DTITLE=Lou - Et après on verra
DYEAR=2010
DGENRE=Blues
TTITLE0=La prunelle de mes yeux
TTITLE1=Egale à moi même
TTITLE2=Océanic sentimant
TTITLE3=Je n'ai rien fait
TTITLE4=Tous les jours
TTITLE5=D'avril à juillet
TTITLE6=La côte sauvage
TTITLE7=Plus rien
EXTD=
EXTT0=
EXTT1=
EXTT2=
EXTT3=
EXTT4=
EXTT5=
EXTT6=
EXTT7=
PLAYORDER=
